<svg height="1678" width="720" xmlns="http://www.w3.org/2000/svg">
<rect height="1678" fill="#555" width="720"></rect>
<text fill="#7f7" font-family="Courier New" font-size="12" xml:space="preserve">
<tspan x="10" y="26">11 megabytes installed</tspan>
<tspan x="10" y="42"></tspan>
<tspan x="10" y="58">node_modules</tspan>
<tspan x="10" y="74">└─┬ gulp-fixmyjs@1.0.2 </tspan>
<tspan x="10" y="90">  ├─┬ fixmyjs@1.0.3 </tspan>
<tspan x="10" y="106">  │ ├─┬ commander@2.9.0 </tspan>
<tspan x="10" y="122">  │ │ └── graceful-readlink@1.0.1 </tspan>
<tspan x="10" y="138">  │ ├── diff@1.4.0 </tspan>
<tspan x="10" y="154">  │ ├─┬ escodegen@1.8.1 </tspan>
<tspan x="10" y="170">  │ │ ├── esprima@2.7.3 </tspan>
<tspan x="10" y="186">  │ │ ├── estraverse@1.9.3 </tspan>
<tspan x="10" y="202">  │ │ ├── esutils@2.0.2 </tspan>
<tspan x="10" y="218">  │ │ ├─┬ optionator@0.8.2 </tspan>
<tspan x="10" y="234">  │ │ │ ├── deep-is@0.1.3 </tspan>
<tspan x="10" y="250">  │ │ │ ├── fast-levenshtein@2.0.6 </tspan>
<tspan x="10" y="266">  │ │ │ ├── levn@0.3.0 </tspan>
<tspan x="10" y="282">  │ │ │ ├── prelude-ls@1.1.2 </tspan>
<tspan x="10" y="298">  │ │ │ ├── type-check@0.3.2 </tspan>
<tspan x="10" y="314">  │ │ │ └── wordwrap@1.0.0 </tspan>
<tspan x="10" y="330">  │ │ └─┬ source-map@0.2.0 </tspan>
<tspan x="10" y="346">  │ │   └── amdefine@1.0.1 </tspan>
<tspan x="10" y="362">  │ ├── esprima@1.2.5 </tspan>
<tspan x="10" y="378">  │ ├── fu@0.1.0 </tspan>
<tspan x="10" y="394">  │ └─┬ minimatch@1.0.0 </tspan>
<tspan x="10" y="410">  │   ├── lru-cache@2.7.3 </tspan>
<tspan x="10" y="426">  │   └── sigmund@1.0.1 </tspan>
<tspan x="10" y="442">  ├─┬ gulp-util@3.0.8 </tspan>
<tspan x="10" y="458">  │ ├── array-differ@1.0.0 </tspan>
<tspan x="10" y="474">  │ ├── array-uniq@1.0.3 </tspan>
<tspan x="10" y="490">  │ ├── beeper@1.1.1 </tspan>
<tspan x="10" y="506">  │ ├─┬ chalk@1.1.3 </tspan>
<tspan x="10" y="522">  │ │ ├── ansi-styles@2.2.1 </tspan>
<tspan x="10" y="538">  │ │ ├── escape-string-regexp@1.0.5 </tspan>
<tspan x="10" y="554">  │ │ ├─┬ has-ansi@2.0.0 </tspan>
<tspan x="10" y="570">  │ │ │ └── ansi-regex@2.1.1 </tspan>
<tspan x="10" y="586">  │ │ ├── strip-ansi@3.0.1 </tspan>
<tspan x="10" y="602">  │ │ └── supports-color@2.0.0 </tspan>
<tspan x="10" y="618">  │ ├── dateformat@2.0.0 </tspan>
<tspan x="10" y="634">  │ ├─┬ fancy-log@1.3.0 </tspan>
<tspan x="10" y="650">  │ │ └── time-stamp@1.0.1 </tspan>
<tspan x="10" y="666">  │ ├─┬ gulplog@1.0.0 </tspan>
<tspan x="10" y="682">  │ │ └── glogg@1.0.0 </tspan>
<tspan x="10" y="698">  │ ├─┬ has-gulplog@0.1.0 </tspan>
<tspan x="10" y="714">  │ │ └── sparkles@1.0.0 </tspan>
<tspan x="10" y="730">  │ ├── lodash._reescape@3.0.0 </tspan>
<tspan x="10" y="746">  │ ├── lodash._reevaluate@3.0.0 </tspan>
<tspan x="10" y="762">  │ ├── lodash._reinterpolate@3.0.0 </tspan>
<tspan x="10" y="778">  │ ├─┬ lodash.template@3.6.2 </tspan>
<tspan x="10" y="794">  │ │ ├── lodash._basecopy@3.0.1 </tspan>
<tspan x="10" y="810">  │ │ ├── lodash._basetostring@3.0.1 </tspan>
<tspan x="10" y="826">  │ │ ├── lodash._basevalues@3.0.0 </tspan>
<tspan x="10" y="842">  │ │ ├── lodash._isiterateecall@3.0.9 </tspan>
<tspan x="10" y="858">  │ │ ├─┬ lodash.escape@3.2.0 </tspan>
<tspan x="10" y="874">  │ │ │ └── lodash._root@3.0.1 </tspan>
<tspan x="10" y="890">  │ │ ├─┬ lodash.keys@3.1.2 </tspan>
<tspan x="10" y="906">  │ │ │ ├── lodash._getnative@3.9.1 </tspan>
<tspan x="10" y="922">  │ │ │ ├── lodash.isarguments@3.1.0 </tspan>
<tspan x="10" y="938">  │ │ │ └── lodash.isarray@3.0.4 </tspan>
<tspan x="10" y="954">  │ │ ├── lodash.restparam@3.6.1 </tspan>
<tspan x="10" y="970">  │ │ └── lodash.templatesettings@3.1.1 </tspan>
<tspan x="10" y="986">  │ ├── minimist@1.2.0 </tspan>
<tspan x="10" y="1002">  │ ├─┬ multipipe@0.1.2 </tspan>
<tspan x="10" y="1018">  │ │ └── duplexer2@0.0.2 </tspan>
<tspan x="10" y="1034">  │ ├── object-assign@3.0.0 </tspan>
<tspan x="10" y="1050">  │ ├── replace-ext@0.0.1 </tspan>
<tspan x="10" y="1066">  │ └─┬ vinyl@0.5.3 </tspan>
<tspan x="10" y="1082">  │   ├── clone@1.0.2 </tspan>
<tspan x="10" y="1098">  │   └── clone-stats@0.0.1 </tspan>
<tspan x="10" y="1114">  ├─┬ jshint@2.6.3 </tspan>
<tspan x="10" y="1130">  │ ├─┬ cli@0.6.6 </tspan>
<tspan x="10" y="1146">  │ │ └─┬ glob@3.2.11 </tspan>
<tspan x="10" y="1162">  │ │   └── minimatch@0.3.0 </tspan>
<tspan x="10" y="1178">  │ ├─┬ console-browserify@1.1.0 </tspan>
<tspan x="10" y="1194">  │ │ └── date-now@0.1.4 </tspan>
<tspan x="10" y="1210">  │ ├── exit@0.1.2 </tspan>
<tspan x="10" y="1226">  │ ├─┬ htmlparser2@3.8.3 </tspan>
<tspan x="10" y="1242">  │ │ ├── domelementtype@1.3.0 </tspan>
<tspan x="10" y="1258">  │ │ ├── domhandler@2.3.0 </tspan>
<tspan x="10" y="1274">  │ │ ├─┬ domutils@1.5.1 </tspan>
<tspan x="10" y="1290">  │ │ │ └─┬ dom-serializer@0.1.0 </tspan>
<tspan x="10" y="1306">  │ │ │   ├── domelementtype@1.1.3 </tspan>
<tspan x="10" y="1322">  │ │ │   └── entities@1.1.1 </tspan>
<tspan x="10" y="1338">  │ │ ├── entities@1.0.0 </tspan>
<tspan x="10" y="1354">  │ │ └─┬ readable-stream@1.1.14 </tspan>
<tspan x="10" y="1370">  │ │   ├── isarray@0.0.1 </tspan>
<tspan x="10" y="1386">  │ │   └── string_decoder@0.10.31 </tspan>
<tspan x="10" y="1402">  │ ├── shelljs@0.3.0 </tspan>
<tspan x="10" y="1418">  │ ├── strip-json-comments@1.0.4 </tspan>
<tspan x="10" y="1434">  │ └── underscore@1.6.0 </tspan>
<tspan x="10" y="1450">  ├─┬ rcloader@0.1.4 </tspan>
<tspan x="10" y="1466">  │ ├── lodash@3.10.1 </tspan>
<tspan x="10" y="1482">  │ └─┬ rcfinder@0.1.9 </tspan>
<tspan x="10" y="1498">  │   └── lodash.clonedeep@4.5.0 </tspan>
<tspan x="10" y="1514">  └─┬ through2@2.0.3 </tspan>
<tspan x="10" y="1530">    ├─┬ readable-stream@2.2.9 </tspan>
<tspan x="10" y="1546">    │ ├── buffer-shims@1.0.0 </tspan>
<tspan x="10" y="1562">    │ ├── core-util-is@1.0.2 </tspan>
<tspan x="10" y="1578">    │ ├── inherits@2.0.3 </tspan>
<tspan x="10" y="1594">    │ ├── isarray@1.0.0 </tspan>
<tspan x="10" y="1610">    │ ├── process-nextick-args@1.0.7 </tspan>
<tspan x="10" y="1626">    │ ├── string_decoder@1.0.0 </tspan>
<tspan x="10" y="1642">    │ └── util-deprecate@1.0.2 </tspan>
<tspan x="10" y="1658">    └── xtend@4.0.1</tspan>
</text>
</svg>
